<?xml version="1.0" standalone="no"?>
<!DOCTYPE svg PUBLIC "-//W3C//DTD SVG 20010904//EN"
 "http://www.w3.org/TR/2001/REC-SVG-20010904/DTD/svg10.dtd">
<svg version="1.0" xmlns="http://www.w3.org/2000/svg"
 width="200.000000pt" height="200.000000pt" viewBox="0 0 200.000000 200.000000"
 preserveAspectRatio="xMidYMid meet">
<metadata>
Created by potrace 1.11, written by Peter Selinger 2001-2013
</metadata>
<g transform="translate(0.000000,200.000000) scale(0.100000,-0.100000)"
fill="#000000" stroke="none">
<path d="M1230 1584 c-19 -8 -49 -26 -67 -40 -23 -17 -40 -23 -54 -19 -34 11
-105 -4 -145 -31 l-37 -25 -21 20 c-36 34 -95 53 -140 47 -86 -13 -197 -97
-270 -203 -222 -325 -75 -762 302 -900 178 -65 421 -26 557 90 22 19 63 42 91
51 147 48 208 200 113 280 -47 40 -101 50 -186 36 -134 -23 -205 2 -257 93
-49 86 -42 152 25 237 59 75 83 133 75 186 -5 39 -3 45 22 62 15 11 38 23 52
27 37 11 50 25 50 51 0 50 -45 66 -110 38z m-402 -166 c23 -23 13 -74 -23
-124 -19 -27 -49 -78 -67 -114 -28 -56 -33 -75 -33 -140 0 -65 5 -85 32 -141
83 -167 245 -242 423 -194 78 21 126 19 150 -5 27 -27 25 -42 -7 -81 -65 -77
-249 -131 -380 -111 -333 52 -522 398 -379 697 72 150 229 268 284 213z m289
-24 c5 -14 -20 -58 -83 -147 -18 -27 -39 -68 -45 -90 -26 -98 12 -219 97 -304
25 -25 43 -48 39 -51 -3 -3 -36 -6 -74 -6 -88 0 -146 32 -198 110 -63 95 -58
197 14 291 20 26 47 71 60 100 25 55 90 119 127 125 26 5 55 -8 63 -28z m371
-616 c20 -20 14 -45 -19 -73 l-32 -26 -19 42 c-10 24 -24 49 -30 56 -8 10 -1
13 39 13 27 0 54 -5 61 -12z"/>
<path d="M612 878 c-33 -33 4 -123 78 -192 52 -48 78 -56 104 -30 26 26 19 60
-17 88 -19 14 -47 50 -62 78 -16 29 -33 56 -39 60 -17 12 -51 9 -64 -4z"/>
<path d="M1327 1193 c-4 -3 -7 -15 -7 -25 0 -12 -7 -18 -23 -18 -33 0 -47 -18
-47 -60 0 -46 15 -60 62 -60 l38 0 0 85 c0 78 -5 96 -23 78z m-12 -104 c0 -27
-4 -34 -20 -34 -24 0 -33 38 -14 61 19 23 34 11 34 -27z"/>
<path d="M1392 1138 c-7 -7 -12 -28 -12 -48 0 -20 5 -41 12 -48 17 -17 68 -15
68 2 0 10 -9 14 -26 13 -15 -1 -29 4 -31 11 -3 8 8 12 36 12 33 0 41 4 41 18
0 40 -61 67 -88 40z m56 -26 c2 -7 -7 -12 -23 -12 -24 0 -26 2 -15 15 14 17
31 16 38 -3z"/>
<path d="M1500 1143 c0 -5 9 -30 19 -58 25 -66 44 -69 65 -9 9 26 16 54 16 61
0 27 -16 12 -32 -29 -10 -28 -18 -38 -22 -28 -3 8 -10 27 -15 43 -9 24 -31 38
-31 20z"/>
<path d="M1150 1045 c0 -10 7 -15 18 -13 21 4 19 22 -2 26 -10 2 -16 -3 -16
-13z"/>
</g>
</svg>
